<mxfile host="Electron" modified="2024-07-17T19:23:15.569Z" agent="Mozilla/5.0 (Windows NT 10.0; Win64; x64) AppleWebKit/537.36 (KHTML, like Gecko) draw.io/24.5.3 Chrome/124.0.6367.207 Electron/30.0.6 Safari/537.36" etag="yYfgB_mRvjGZxH9k4zOU" version="24.5.3" type="device">
  <diagram id="C5RBs43oDa-KdzZeNtuy" name="Page-1">
    <mxGraphModel dx="1877" dy="1790" grid="1" gridSize="10" guides="1" tooltips="1" connect="1" arrows="1" fold="1" page="1" pageScale="1" pageWidth="827" pageHeight="1169" math="0" shadow="0">
      <root>
        <mxCell id="WIyWlLk6GJQsqaUBKTNV-0" />
        <mxCell id="WIyWlLk6GJQsqaUBKTNV-1" parent="WIyWlLk6GJQsqaUBKTNV-0" />
        <mxCell id="W7W27pN1gsr87-b_MbHG-0" value="Product&lt;hr&gt;int id;&lt;div&gt;String name;&lt;/div&gt;" style="whiteSpace=wrap;html=1;aspect=fixed;" vertex="1" parent="WIyWlLk6GJQsqaUBKTNV-1">
          <mxGeometry x="720" y="40" width="80" height="80" as="geometry" />
        </mxCell>
        <mxCell id="W7W27pN1gsr87-b_MbHG-2" style="edgeStyle=orthogonalEdgeStyle;rounded=0;orthogonalLoop=1;jettySize=auto;html=1;exitX=1;exitY=0.25;exitDx=0;exitDy=0;entryX=0;entryY=0.5;entryDx=0;entryDy=0;" edge="1" parent="WIyWlLk6GJQsqaUBKTNV-1" source="W7W27pN1gsr87-b_MbHG-1" target="W7W27pN1gsr87-b_MbHG-0">
          <mxGeometry relative="1" as="geometry" />
        </mxCell>
        <mxCell id="W7W27pN1gsr87-b_MbHG-1" value="ProductCategory&lt;div&gt;&lt;hr&gt;categoryId;&lt;/div&gt;&lt;div&gt;categotyName;&lt;/div&gt;&lt;div&gt;List&amp;lt;Product&amp;gt; list;&lt;/div&gt;&lt;div&gt;double price;&lt;/div&gt;&lt;hr&gt;addProduct(product);&lt;div&gt;removeProduct(count);&lt;/div&gt;&lt;div&gt;getProduct(product);&lt;/div&gt;" style="whiteSpace=wrap;html=1;aspect=fixed;" vertex="1" parent="WIyWlLk6GJQsqaUBKTNV-1">
          <mxGeometry x="500" y="40" width="160" height="160" as="geometry" />
        </mxCell>
        <mxCell id="W7W27pN1gsr87-b_MbHG-4" style="edgeStyle=orthogonalEdgeStyle;rounded=0;orthogonalLoop=1;jettySize=auto;html=1;exitX=1;exitY=0.25;exitDx=0;exitDy=0;entryX=0;entryY=0.25;entryDx=0;entryDy=0;" edge="1" parent="WIyWlLk6GJQsqaUBKTNV-1" source="W7W27pN1gsr87-b_MbHG-3" target="W7W27pN1gsr87-b_MbHG-1">
          <mxGeometry relative="1" as="geometry" />
        </mxCell>
        <mxCell id="W7W27pN1gsr87-b_MbHG-3" value="Inventory&lt;hr&gt;List&amp;lt;Category&amp;gt; list;&lt;div&gt;&lt;hr&gt;addCategory();&lt;/div&gt;&lt;div&gt;removeCategory();&lt;/div&gt;&lt;div&gt;addProduct(Category);&lt;/div&gt;&lt;div&gt;getCategory(CategoryId);&lt;/div&gt;" style="whiteSpace=wrap;html=1;aspect=fixed;" vertex="1" parent="WIyWlLk6GJQsqaUBKTNV-1">
          <mxGeometry x="280" y="40" width="160" height="160" as="geometry" />
        </mxCell>
        <mxCell id="W7W27pN1gsr87-b_MbHG-6" style="edgeStyle=orthogonalEdgeStyle;rounded=0;orthogonalLoop=1;jettySize=auto;html=1;exitX=1;exitY=0.5;exitDx=0;exitDy=0;entryX=0;entryY=0.5;entryDx=0;entryDy=0;" edge="1" parent="WIyWlLk6GJQsqaUBKTNV-1" source="W7W27pN1gsr87-b_MbHG-5" target="W7W27pN1gsr87-b_MbHG-3">
          <mxGeometry relative="1" as="geometry" />
        </mxCell>
        <mxCell id="W7W27pN1gsr87-b_MbHG-32" style="edgeStyle=orthogonalEdgeStyle;rounded=0;orthogonalLoop=1;jettySize=auto;html=1;exitX=0;exitY=0.75;exitDx=0;exitDy=0;entryX=0.5;entryY=0;entryDx=0;entryDy=0;" edge="1" parent="WIyWlLk6GJQsqaUBKTNV-1" source="W7W27pN1gsr87-b_MbHG-5" target="W7W27pN1gsr87-b_MbHG-7">
          <mxGeometry relative="1" as="geometry">
            <mxPoint x="-80" y="230" as="targetPoint" />
          </mxGeometry>
        </mxCell>
        <mxCell id="W7W27pN1gsr87-b_MbHG-5" value="Warehouse&lt;hr&gt;Inventory obj;&lt;div&gt;Address address;&lt;/div&gt;&lt;div&gt;&lt;hr&gt;addItemToInventory();&lt;/div&gt;&lt;div&gt;removeItemFromInventory();&lt;/div&gt;" style="whiteSpace=wrap;html=1;aspect=fixed;" vertex="1" parent="WIyWlLk6GJQsqaUBKTNV-1">
          <mxGeometry x="40" y="40" width="160" height="160" as="geometry" />
        </mxCell>
        <mxCell id="W7W27pN1gsr87-b_MbHG-7" value="Address&lt;hr&gt;city;&lt;div&gt;state;&lt;/div&gt;&lt;div&gt;pincode;&lt;/div&gt;" style="whiteSpace=wrap;html=1;aspect=fixed;" vertex="1" parent="WIyWlLk6GJQsqaUBKTNV-1">
          <mxGeometry x="-120" y="240" width="80" height="80" as="geometry" />
        </mxCell>
        <mxCell id="W7W27pN1gsr87-b_MbHG-10" style="edgeStyle=orthogonalEdgeStyle;rounded=0;orthogonalLoop=1;jettySize=auto;html=1;exitX=0.5;exitY=0;exitDx=0;exitDy=0;entryX=0.5;entryY=1;entryDx=0;entryDy=0;" edge="1" parent="WIyWlLk6GJQsqaUBKTNV-1" source="W7W27pN1gsr87-b_MbHG-9" target="W7W27pN1gsr87-b_MbHG-5">
          <mxGeometry relative="1" as="geometry" />
        </mxCell>
        <mxCell id="W7W27pN1gsr87-b_MbHG-16" style="edgeStyle=orthogonalEdgeStyle;rounded=0;orthogonalLoop=1;jettySize=auto;html=1;exitX=1;exitY=0.25;exitDx=0;exitDy=0;entryX=0;entryY=0.75;entryDx=0;entryDy=0;" edge="1" parent="WIyWlLk6GJQsqaUBKTNV-1" source="W7W27pN1gsr87-b_MbHG-9" target="W7W27pN1gsr87-b_MbHG-11">
          <mxGeometry relative="1" as="geometry" />
        </mxCell>
        <mxCell id="W7W27pN1gsr87-b_MbHG-9" value="WarehouseController&lt;hr&gt;List&amp;lt;Warehouse&amp;gt; list;&lt;div&gt;warehouseSelectionStrategy obj;&lt;/div&gt;&lt;hr&gt;addWarehouse(warehouse);&lt;div&gt;removeWarehouse(warehouse);&lt;/div&gt;&lt;div&gt;selectWarehouse(obj);&lt;/div&gt;" style="whiteSpace=wrap;html=1;aspect=fixed;" vertex="1" parent="WIyWlLk6GJQsqaUBKTNV-1">
          <mxGeometry x="20" y="240" width="180" height="180" as="geometry" />
        </mxCell>
        <mxCell id="W7W27pN1gsr87-b_MbHG-11" value="warehouseSelectionStrategy&lt;hr&gt;selectWarehouse(warehouseList);" style="rounded=0;whiteSpace=wrap;html=1;" vertex="1" parent="WIyWlLk6GJQsqaUBKTNV-1">
          <mxGeometry x="240" y="240" width="190" height="60" as="geometry" />
        </mxCell>
        <mxCell id="W7W27pN1gsr87-b_MbHG-12" value="NearestWarehouse-&lt;div&gt;SelectionStrategy&lt;/div&gt;&lt;hr&gt;selectWarehouse( warehouseList);" style="rounded=0;whiteSpace=wrap;html=1;" vertex="1" parent="WIyWlLk6GJQsqaUBKTNV-1">
          <mxGeometry x="230" y="360" width="130" height="70" as="geometry" />
        </mxCell>
        <mxCell id="W7W27pN1gsr87-b_MbHG-13" value="CheapestWarehouse-&lt;div&gt;SelectionStrategy&lt;/div&gt;&lt;hr&gt;selectWarehouse( warehouseList);" style="rounded=0;whiteSpace=wrap;html=1;" vertex="1" parent="WIyWlLk6GJQsqaUBKTNV-1">
          <mxGeometry x="380" y="360" width="130" height="70" as="geometry" />
        </mxCell>
        <mxCell id="W7W27pN1gsr87-b_MbHG-14" value="Extends" style="endArrow=block;endSize=16;endFill=0;html=1;rounded=0;exitX=0.25;exitY=1;exitDx=0;exitDy=0;entryX=0.5;entryY=0;entryDx=0;entryDy=0;" edge="1" parent="WIyWlLk6GJQsqaUBKTNV-1" source="W7W27pN1gsr87-b_MbHG-11" target="W7W27pN1gsr87-b_MbHG-12">
          <mxGeometry width="160" relative="1" as="geometry">
            <mxPoint x="330" y="320" as="sourcePoint" />
            <mxPoint x="490" y="320" as="targetPoint" />
          </mxGeometry>
        </mxCell>
        <mxCell id="W7W27pN1gsr87-b_MbHG-15" value="Extends" style="endArrow=block;endSize=16;endFill=0;html=1;rounded=0;exitX=0.75;exitY=1;exitDx=0;exitDy=0;entryX=0.25;entryY=0;entryDx=0;entryDy=0;" edge="1" parent="WIyWlLk6GJQsqaUBKTNV-1" source="W7W27pN1gsr87-b_MbHG-11" target="W7W27pN1gsr87-b_MbHG-13">
          <mxGeometry width="160" relative="1" as="geometry">
            <mxPoint x="298" y="310" as="sourcePoint" />
            <mxPoint x="305" y="370" as="targetPoint" />
          </mxGeometry>
        </mxCell>
        <mxCell id="W7W27pN1gsr87-b_MbHG-21" style="edgeStyle=orthogonalEdgeStyle;rounded=0;orthogonalLoop=1;jettySize=auto;html=1;exitX=0.5;exitY=1;exitDx=0;exitDy=0;entryX=0.25;entryY=0;entryDx=0;entryDy=0;" edge="1" parent="WIyWlLk6GJQsqaUBKTNV-1" source="W7W27pN1gsr87-b_MbHG-17" target="W7W27pN1gsr87-b_MbHG-20">
          <mxGeometry relative="1" as="geometry" />
        </mxCell>
        <mxCell id="W7W27pN1gsr87-b_MbHG-54" style="edgeStyle=orthogonalEdgeStyle;rounded=0;orthogonalLoop=1;jettySize=auto;html=1;exitX=0.5;exitY=0;exitDx=0;exitDy=0;entryX=0.25;entryY=0;entryDx=0;entryDy=0;" edge="1" parent="WIyWlLk6GJQsqaUBKTNV-1" source="W7W27pN1gsr87-b_MbHG-17" target="W7W27pN1gsr87-b_MbHG-7">
          <mxGeometry relative="1" as="geometry">
            <Array as="points">
              <mxPoint x="1020" y="30" />
              <mxPoint x="-100" y="30" />
            </Array>
          </mxGeometry>
        </mxCell>
        <mxCell id="W7W27pN1gsr87-b_MbHG-17" value="User&lt;hr&gt;int id;&lt;div&gt;string name;&lt;/div&gt;&lt;div&gt;Address address;&lt;/div&gt;&lt;div&gt;Cart cart;&lt;/div&gt;&lt;div&gt;List&amp;lt;OrderId&amp;gt; list;&lt;/div&gt;&lt;hr&gt;getUserCart();" style="whiteSpace=wrap;html=1;aspect=fixed;" vertex="1" parent="WIyWlLk6GJQsqaUBKTNV-1">
          <mxGeometry x="950" y="150" width="130" height="130" as="geometry" />
        </mxCell>
        <mxCell id="W7W27pN1gsr87-b_MbHG-19" style="edgeStyle=orthogonalEdgeStyle;rounded=0;orthogonalLoop=1;jettySize=auto;html=1;exitX=1;exitY=0.5;exitDx=0;exitDy=0;entryX=0;entryY=0.5;entryDx=0;entryDy=0;" edge="1" parent="WIyWlLk6GJQsqaUBKTNV-1" source="W7W27pN1gsr87-b_MbHG-18" target="W7W27pN1gsr87-b_MbHG-17">
          <mxGeometry relative="1" as="geometry" />
        </mxCell>
        <mxCell id="W7W27pN1gsr87-b_MbHG-18" value="UserController&lt;hr&gt;List&amp;lt;User&amp;gt; list;&lt;div&gt;&lt;hr&gt;addUser();&lt;/div&gt;&lt;div&gt;removeUser();&lt;/div&gt;" style="whiteSpace=wrap;html=1;aspect=fixed;" vertex="1" parent="WIyWlLk6GJQsqaUBKTNV-1">
          <mxGeometry x="790" y="160" width="117" height="117" as="geometry" />
        </mxCell>
        <mxCell id="W7W27pN1gsr87-b_MbHG-20" value="Cart&lt;hr&gt;Map&amp;lt;int,int&amp;gt;&amp;nbsp; CategoryIdVsCount;&lt;hr&gt;addItemCart(productId,count);&lt;div&gt;removeItemCart(producrId,count;&lt;/div&gt;&lt;div&gt;emptyCart();&lt;/div&gt;&lt;div&gt;getCartItems();&lt;/div&gt;" style="whiteSpace=wrap;html=1;aspect=fixed;" vertex="1" parent="WIyWlLk6GJQsqaUBKTNV-1">
          <mxGeometry x="1000" y="320" width="180" height="180" as="geometry" />
        </mxCell>
        <mxCell id="W7W27pN1gsr87-b_MbHG-23" style="edgeStyle=orthogonalEdgeStyle;rounded=0;orthogonalLoop=1;jettySize=auto;html=1;exitX=0.75;exitY=0;exitDx=0;exitDy=0;entryX=0;entryY=1;entryDx=0;entryDy=0;" edge="1" parent="WIyWlLk6GJQsqaUBKTNV-1" source="W7W27pN1gsr87-b_MbHG-22" target="W7W27pN1gsr87-b_MbHG-17">
          <mxGeometry relative="1" as="geometry" />
        </mxCell>
        <mxCell id="W7W27pN1gsr87-b_MbHG-28" style="edgeStyle=orthogonalEdgeStyle;rounded=0;orthogonalLoop=1;jettySize=auto;html=1;exitX=1;exitY=0.75;exitDx=0;exitDy=0;entryX=0;entryY=0.25;entryDx=0;entryDy=0;" edge="1" parent="WIyWlLk6GJQsqaUBKTNV-1" source="W7W27pN1gsr87-b_MbHG-22" target="W7W27pN1gsr87-b_MbHG-27">
          <mxGeometry relative="1" as="geometry" />
        </mxCell>
        <mxCell id="W7W27pN1gsr87-b_MbHG-30" style="edgeStyle=orthogonalEdgeStyle;rounded=0;orthogonalLoop=1;jettySize=auto;html=1;exitX=0.75;exitY=1;exitDx=0;exitDy=0;entryX=0.5;entryY=0;entryDx=0;entryDy=0;" edge="1" parent="WIyWlLk6GJQsqaUBKTNV-1" source="W7W27pN1gsr87-b_MbHG-22" target="W7W27pN1gsr87-b_MbHG-29">
          <mxGeometry relative="1" as="geometry" />
        </mxCell>
        <mxCell id="W7W27pN1gsr87-b_MbHG-31" style="edgeStyle=orthogonalEdgeStyle;rounded=0;orthogonalLoop=1;jettySize=auto;html=1;exitX=0.25;exitY=0;exitDx=0;exitDy=0;entryX=0.75;entryY=1;entryDx=0;entryDy=0;" edge="1" parent="WIyWlLk6GJQsqaUBKTNV-1" source="W7W27pN1gsr87-b_MbHG-22" target="W7W27pN1gsr87-b_MbHG-5">
          <mxGeometry relative="1" as="geometry">
            <Array as="points">
              <mxPoint x="770" y="320" />
              <mxPoint x="770" y="230" />
              <mxPoint x="160" y="230" />
            </Array>
          </mxGeometry>
        </mxCell>
        <mxCell id="W7W27pN1gsr87-b_MbHG-33" style="edgeStyle=orthogonalEdgeStyle;rounded=0;orthogonalLoop=1;jettySize=auto;html=1;exitX=0;exitY=0.75;exitDx=0;exitDy=0;entryX=0.75;entryY=1;entryDx=0;entryDy=0;" edge="1" parent="WIyWlLk6GJQsqaUBKTNV-1" source="W7W27pN1gsr87-b_MbHG-22" target="W7W27pN1gsr87-b_MbHG-7">
          <mxGeometry relative="1" as="geometry" />
        </mxCell>
        <mxCell id="W7W27pN1gsr87-b_MbHG-43" style="edgeStyle=orthogonalEdgeStyle;rounded=0;orthogonalLoop=1;jettySize=auto;html=1;exitX=0;exitY=1;exitDx=0;exitDy=0;entryX=1;entryY=0.25;entryDx=0;entryDy=0;" edge="1" parent="WIyWlLk6GJQsqaUBKTNV-1" source="W7W27pN1gsr87-b_MbHG-22" target="W7W27pN1gsr87-b_MbHG-35">
          <mxGeometry relative="1" as="geometry" />
        </mxCell>
        <mxCell id="W7W27pN1gsr87-b_MbHG-22" value="Order&lt;hr&gt;int id;&lt;div&gt;User user;&lt;/div&gt;&lt;div&gt;Address delivery;&lt;/div&gt;&lt;div&gt;Map&amp;lt;int,int&amp;gt; categoryIdVsCount;&lt;/div&gt;&lt;div&gt;Warehouse warehouse;&lt;/div&gt;&lt;div&gt;Invoice invoice;&lt;/div&gt;&lt;div&gt;Payment payment;&lt;/div&gt;&lt;div&gt;OrderStatus status;&lt;/div&gt;&lt;hr&gt;checkout();&lt;div&gt;generateInvoice();&lt;/div&gt;&lt;div&gt;makePayment();&lt;/div&gt;" style="whiteSpace=wrap;html=1;aspect=fixed;" vertex="1" parent="WIyWlLk6GJQsqaUBKTNV-1">
          <mxGeometry x="760" y="320" width="200" height="200" as="geometry" />
        </mxCell>
        <mxCell id="W7W27pN1gsr87-b_MbHG-26" style="edgeStyle=orthogonalEdgeStyle;rounded=0;orthogonalLoop=1;jettySize=auto;html=1;exitX=1;exitY=0.5;exitDx=0;exitDy=0;entryX=0;entryY=0.25;entryDx=0;entryDy=0;" edge="1" parent="WIyWlLk6GJQsqaUBKTNV-1" source="W7W27pN1gsr87-b_MbHG-24" target="W7W27pN1gsr87-b_MbHG-22">
          <mxGeometry relative="1" as="geometry" />
        </mxCell>
        <mxCell id="W7W27pN1gsr87-b_MbHG-24" value="OrderController&lt;hr&gt;List&amp;lt;Order&amp;gt; list;&lt;hr&gt;createOrder();&lt;div&gt;removeOrder();&lt;/div&gt;&lt;div&gt;getOrderbyOrderId();&lt;/div&gt;&lt;div&gt;getOrderbyUserId();&lt;/div&gt;" style="whiteSpace=wrap;html=1;aspect=fixed;" vertex="1" parent="WIyWlLk6GJQsqaUBKTNV-1">
          <mxGeometry x="600" y="320" width="120" height="120" as="geometry" />
        </mxCell>
        <mxCell id="W7W27pN1gsr87-b_MbHG-27" value="enum OrderStatus&lt;hr&gt;&lt;pre lang=&quot;java&quot; class=&quot;code highlight&quot;&gt;&lt;span class=&quot;&quot;&gt;    DELIVERED,&lt;/span&gt;&lt;br/&gt;&lt;span class=&quot;&quot;&gt;    CANCELLED,&lt;/span&gt;&lt;br/&gt;&lt;span class=&quot;&quot;&gt;    RETURNED,&lt;/span&gt;&lt;br/&gt;&lt;span class=&quot;&quot;&gt;    UNDELIVERED;&lt;/span&gt;&lt;br/&gt;&lt;/pre&gt;" style="whiteSpace=wrap;html=1;aspect=fixed;" vertex="1" parent="WIyWlLk6GJQsqaUBKTNV-1">
          <mxGeometry x="1000" y="520" width="110" height="110" as="geometry" />
        </mxCell>
        <mxCell id="W7W27pN1gsr87-b_MbHG-29" value="Invoice&lt;hr&gt;int totalPrice;&lt;div&gt;int totalTax;&lt;/div&gt;&lt;div&gt;int finalAmount;&lt;/div&gt;" style="whiteSpace=wrap;html=1;aspect=fixed;" vertex="1" parent="WIyWlLk6GJQsqaUBKTNV-1">
          <mxGeometry x="850" y="560" width="110" height="110" as="geometry" />
        </mxCell>
        <mxCell id="W7W27pN1gsr87-b_MbHG-38" style="edgeStyle=orthogonalEdgeStyle;rounded=0;orthogonalLoop=1;jettySize=auto;html=1;exitX=0.5;exitY=1;exitDx=0;exitDy=0;entryX=0.5;entryY=0;entryDx=0;entryDy=0;" edge="1" parent="WIyWlLk6GJQsqaUBKTNV-1" source="W7W27pN1gsr87-b_MbHG-35" target="W7W27pN1gsr87-b_MbHG-37">
          <mxGeometry relative="1" as="geometry" />
        </mxCell>
        <mxCell id="W7W27pN1gsr87-b_MbHG-35" value="Payment&lt;hr&gt;PaymentMode obj;&lt;hr&gt;makePayment();" style="whiteSpace=wrap;html=1;aspect=fixed;" vertex="1" parent="WIyWlLk6GJQsqaUBKTNV-1">
          <mxGeometry x="580" y="520" width="100" height="100" as="geometry" />
        </mxCell>
        <mxCell id="W7W27pN1gsr87-b_MbHG-37" value="«interface»&lt;br&gt;&lt;b&gt;PaymentMode;&lt;/b&gt;&lt;hr&gt;makePayment();" style="html=1;whiteSpace=wrap;" vertex="1" parent="WIyWlLk6GJQsqaUBKTNV-1">
          <mxGeometry x="580" y="680" width="120" height="60" as="geometry" />
        </mxCell>
        <mxCell id="W7W27pN1gsr87-b_MbHG-39" value="CardPaymentMode&lt;hr&gt;makePayment();" style="html=1;whiteSpace=wrap;" vertex="1" parent="WIyWlLk6GJQsqaUBKTNV-1">
          <mxGeometry x="525" y="800" width="110" height="50" as="geometry" />
        </mxCell>
        <mxCell id="W7W27pN1gsr87-b_MbHG-40" value="UPIPaymentMode&lt;hr&gt;makePayment();" style="html=1;whiteSpace=wrap;" vertex="1" parent="WIyWlLk6GJQsqaUBKTNV-1">
          <mxGeometry x="660" y="800" width="110" height="50" as="geometry" />
        </mxCell>
        <mxCell id="W7W27pN1gsr87-b_MbHG-41" value="" style="endArrow=block;dashed=1;endFill=0;endSize=12;html=1;rounded=0;entryX=0.5;entryY=0;entryDx=0;entryDy=0;exitX=0.25;exitY=1;exitDx=0;exitDy=0;" edge="1" parent="WIyWlLk6GJQsqaUBKTNV-1" source="W7W27pN1gsr87-b_MbHG-37" target="W7W27pN1gsr87-b_MbHG-39">
          <mxGeometry width="160" relative="1" as="geometry">
            <mxPoint x="320" y="640" as="sourcePoint" />
            <mxPoint x="480" y="640" as="targetPoint" />
          </mxGeometry>
        </mxCell>
        <mxCell id="W7W27pN1gsr87-b_MbHG-42" value="" style="endArrow=block;dashed=1;endFill=0;endSize=12;html=1;rounded=0;entryX=0.25;entryY=0;entryDx=0;entryDy=0;exitX=0.75;exitY=1;exitDx=0;exitDy=0;" edge="1" parent="WIyWlLk6GJQsqaUBKTNV-1" source="W7W27pN1gsr87-b_MbHG-37" target="W7W27pN1gsr87-b_MbHG-40">
          <mxGeometry width="160" relative="1" as="geometry">
            <mxPoint x="620" y="750" as="sourcePoint" />
            <mxPoint x="590" y="810" as="targetPoint" />
          </mxGeometry>
        </mxCell>
        <mxCell id="W7W27pN1gsr87-b_MbHG-48" style="edgeStyle=orthogonalEdgeStyle;rounded=0;orthogonalLoop=1;jettySize=auto;html=1;exitX=0.25;exitY=0;exitDx=0;exitDy=0;entryX=0.5;entryY=1;entryDx=0;entryDy=0;" edge="1" parent="WIyWlLk6GJQsqaUBKTNV-1" source="W7W27pN1gsr87-b_MbHG-44" target="W7W27pN1gsr87-b_MbHG-9">
          <mxGeometry relative="1" as="geometry" />
        </mxCell>
        <mxCell id="W7W27pN1gsr87-b_MbHG-49" style="edgeStyle=orthogonalEdgeStyle;rounded=0;orthogonalLoop=1;jettySize=auto;html=1;exitX=1;exitY=0;exitDx=0;exitDy=0;entryX=0;entryY=0.5;entryDx=0;entryDy=0;" edge="1" parent="WIyWlLk6GJQsqaUBKTNV-1" source="W7W27pN1gsr87-b_MbHG-44" target="W7W27pN1gsr87-b_MbHG-18">
          <mxGeometry relative="1" as="geometry">
            <Array as="points">
              <mxPoint x="530" y="520" />
              <mxPoint x="530" y="219" />
            </Array>
          </mxGeometry>
        </mxCell>
        <mxCell id="W7W27pN1gsr87-b_MbHG-52" style="edgeStyle=orthogonalEdgeStyle;rounded=0;orthogonalLoop=1;jettySize=auto;html=1;exitX=1;exitY=0.25;exitDx=0;exitDy=0;entryX=0;entryY=0.75;entryDx=0;entryDy=0;" edge="1" parent="WIyWlLk6GJQsqaUBKTNV-1" source="W7W27pN1gsr87-b_MbHG-44" target="W7W27pN1gsr87-b_MbHG-24">
          <mxGeometry relative="1" as="geometry">
            <Array as="points">
              <mxPoint x="570" y="570" />
              <mxPoint x="570" y="410" />
            </Array>
          </mxGeometry>
        </mxCell>
        <mxCell id="W7W27pN1gsr87-b_MbHG-44" value="ProductDeliverySystem&lt;hr&gt;UserController obj;&lt;div&gt;WarehouseController obj;&lt;/div&gt;&lt;div&gt;OrderController obj;&lt;/div&gt;&lt;hr&gt;getUser(id);&lt;div&gt;getWarehouse(selectionStrategy);&lt;/div&gt;&lt;div&gt;getInventory(warehouse);&lt;/div&gt;&lt;div&gt;addProductToCart(user, product);&lt;/div&gt;&lt;div&gt;placeOrder(user, warehouse);&lt;/div&gt;&lt;div&gt;checkout(order);&lt;/div&gt;&lt;div&gt;&lt;br&gt;&lt;/div&gt;" style="whiteSpace=wrap;html=1;aspect=fixed;" vertex="1" parent="WIyWlLk6GJQsqaUBKTNV-1">
          <mxGeometry x="60" y="520" width="200" height="200" as="geometry" />
        </mxCell>
        <mxCell id="W7W27pN1gsr87-b_MbHG-53" value="Order Management System" style="text;html=1;align=center;verticalAlign=middle;resizable=0;points=[];autosize=1;strokeColor=none;fillColor=none;" vertex="1" parent="WIyWlLk6GJQsqaUBKTNV-1">
          <mxGeometry x="365" y="-2" width="170" height="30" as="geometry" />
        </mxCell>
      </root>
    </mxGraphModel>
  </diagram>
</mxfile>
